<?xml version="1.0" encoding="utf-8"?>
<!-- Generator: Adobe Illustrator 17.1.0, SVG Export Plug-In . SVG Version: 6.00 Build 0)  -->
<!DOCTYPE svg PUBLIC "-//W3C//DTD SVG 1.1//EN" "http://www.w3.org/Graphics/SVG/1.1/DTD/svg11.dtd">
<svg version="1.1" id="vector" xmlns="http://www.w3.org/2000/svg" xmlns:xlink="http://www.w3.org/1999/xlink" x="0px" y="0px"
	 viewBox="0 0 100 100" enable-background="new 0 0 100 100" xml:space="preserve">
<g>
	<path fill="#FFFFFF" d="M40.7,49.8L40.7,49.8L50.1,80l9.4-29.8l0-0.1L50.1,20L40.7,49.8z M42.7,50.8l7.3,4.9l7.5-4.9l-7.4,23.4
		L42.7,50.8z"/>
	<path fill="#FFFFFF" d="M50.1,4.3C25,4.3,4.7,24.7,4.7,49.8S25,95.2,50.1,95.2s45.4-20.3,45.4-45.4S75.2,4.3,50.1,4.3z M50.1,93.2
		c-23.9,0-43.4-19.5-43.4-43.4c0-23.9,19.5-43.4,43.4-43.4c23.9,0,43.4,19.5,43.4,43.4C93.5,73.7,74.1,93.2,50.1,93.2z"/>
</g>
</svg>
